<svg version="1.1" xmlns="http://www.w3.org/2000/svg" viewBox="0 0 719.9160314641674 632.3620985593287" width="1439.8320629283348" height="1264.7241971186575">
  <!-- svg-source:excalidraw -->
  
  <defs>
    <style class="style-fonts">
      @font-face {
        font-family: "Virgil";
        src: url("https://excalidraw.com/Virgil.woff2");
      }
      @font-face {
        font-family: "Cascadia";
        src: url("https://excalidraw.com/Cascadia.woff2");
      }
    </style>
  </defs>
  <rect x="0" y="0" width="719.9160314641674" height="632.3620985593287" fill="#ffffff"></rect><g stroke-linecap="round" transform="translate(52.172702397346654 294.36209855932873) rotate(0 309.5 164)"><path d="M0.19 -0.41 C167.89 -0.56, 334.76 -0.59, 619.17 -0.26 M0.35 -0.11 C245.78 -0.12, 491.88 0.5, 619.01 -0.06 M618.09 1.15 C618.43 129.12, 617.55 256.26, 618.77 327.2 M618.9 -0.03 C620.94 73.78, 621.51 148.46, 619.13 328.36 M619.13 328.22 C391.66 327.54, 165.72 327.87, 0.08 327.45 M619.09 327.84 C462.71 329.92, 306.85 330.48, -0.09 327.72 M-1.33 326.66 C0.59 242.65, 2.1 154.85, -1.1 0.91 M-0.06 327.35 C-1.96 214.79, -1.01 102.09, 0.26 0.11" stroke="#000000" stroke-width="1" fill="none"></path></g><g stroke-linecap="round" transform="translate(155.68018239170067 428.12602097878073) rotate(0 176.5817730229035 81.56649938949107)"><path d="M-1.23 0.83 C125.24 -0.62, 248.67 -0.77, 353.59 1.14 M-0.47 -0.56 C81.23 0.85, 162.37 1.24, 353.15 0.53 M353.63 0.02 C352.21 36.65, 354.04 73.2, 353.1 165.01 M353.07 0.39 C354.36 60.62, 353.77 121.82, 352.4 163.7 M353.71 162.41 C250.03 163.42, 146.19 162.69, 0.97 163.42 M353.2 162.63 C214 164.23, 75.49 163.78, 0.08 163.57 M-0.63 165.12 C-2.58 98.5, -0.7 36.58, -0.87 1.96 M-0.04 162.79 C-0.29 121.3, 0.58 80.19, 0.58 -0.31" stroke="#000000" stroke-width="1" fill="none"></path></g><g transform="translate(253.22361450872108 387.95166522129045) rotate(0 68.5 12.5)"><text x="0" y="18" font-family="Virgil, Segoe UI Emoji" font-size="20px" fill="#000000" text-anchor="start" style="white-space: pre;" direction="ltr">Youtube Video</text></g><g transform="translate(105.45013695640262 323.71081007430905) rotate(0 33.5 12.5)"><text x="0" y="18" font-family="Virgil, Segoe UI Emoji" font-size="20px" fill="#000000" text-anchor="start" style="white-space: pre;" direction="ltr">Search</text></g><g stroke-linecap="round" transform="translate(218.3836375669115 320.0852912896811) rotate(0 118.05631696721619 18.77950969756847)"><path d="M0.52 1.09 C59.4 -1.55, 114.74 -0.99, 235.08 -1.49 M0.52 -0.62 C93.47 -1.19, 186.21 -0.79, 235.55 0.07 M234.35 -0.36 C235.05 11.11, 234.37 23.82, 237.23 37.78 M236.65 0.51 C235.31 11.08, 235.35 21.79, 235.24 37.7 M235.7 36.84 C154.72 35.24, 75.73 35.99, 0.77 36.24 M236.13 36.94 C188.33 39.67, 140.57 39.98, -0.19 37.1 M0.4 39.13 C1.49 24.42, -0.54 7.68, -0.52 -1.78 M-0.81 37.74 C-0.07 29.43, 0.02 20.77, -0.21 -0.97" stroke="#000000" stroke-width="1" fill="none"></path></g><g transform="translate(562.0288939066813 314.66467552936786) rotate(0 37 12.5)"><text x="0" y="18" font-family="Virgil, Segoe UI Emoji" font-size="20px" fill="#000000" text-anchor="start" style="white-space: pre;" direction="ltr">connect</text></g><g stroke-linecap="round" transform="translate(549.0292926880081 315.33249694745564) rotate(0 49.91011969333408 12.917913332392345)"><path d="M0.75 -0.79 C36.11 -1.49, 71.44 0.32, 99.08 -0.36 M-0.84 0.99 C28.49 1.43, 56.42 0.72, 100.74 -0.63 M98.64 0.48 C99.25 10.69, 101.67 21.56, 99.51 24.61 M98.88 0.45 C98.78 9.53, 99.51 17.67, 99.32 25.86 M98.14 26.46 C74.54 26.35, 43.79 26.47, 1.54 26.46 M100.68 25.86 C70.86 25.37, 40.83 25.97, -0.72 26.82 M-0.38 23.93 C-0.26 15.05, 0.25 4.96, 1.17 -0.78 M0.06 24.85 C-0.5 20.4, 0.12 13.08, -0.53 0.85" stroke="#000000" stroke-width="1" fill="none"></path></g><g stroke-linecap="round" transform="translate(92.20490302431494 318.85556421992624) rotate(0 45.21269666337321 18.202514241098314)"><path d="M1.64 0.32 C22.64 -1.22, 45.34 -1.86, 90.76 -0.1 M-0.93 -0.92 C22.35 -1.12, 45.29 -1.14, 89.96 0.25 M92.12 -0.26 C90.36 6.09, 89.96 17.28, 89.58 36.15 M89.6 -0.92 C90.39 7.5, 90.77 16.96, 90.01 37.11 M92.41 38.13 C69.04 37.79, 48.96 34.1, 0.03 36.35 M91 36.71 C71.31 37.82, 49.68 37.42, -0.28 36.38 M1.68 36.76 C-1.54 23.62, 1.58 9, 1.81 0.9 M-0.57 36.74 C0.15 23.4, -0.09 9.04, 0.88 -0.86" stroke="#000000" stroke-width="1" fill="none"></path></g><g transform="translate(251.91728604298396 325.1221890672991) rotate(0 87.5 12.499999999999986)"><text x="0" y="18" font-family="Virgil, Segoe UI Emoji" font-size="20px" fill="#000000" text-anchor="start" style="white-space: pre;" direction="ltr">Chainlink operator</text></g><g stroke-linecap="round"><g transform="translate(308.94654352837165 76.30033275887799) rotate(0 100.78794670472388 3.5158006295876874)"><path d="M0.3 -1.16 C33.88 0.17, 169.14 6.79, 202.58 8.19 M-1.01 0.85 C32.41 1.85, 168.73 5.35, 202.21 6.64" stroke="#000000" stroke-width="1" fill="none"></path></g><g transform="translate(308.94654352837165 76.30033275887799) rotate(0 100.78794670472388 3.5158006295876874)"><path d="M171.79 17.84 C186.69 11.35, 196.26 7.71, 202.16 5.14 M173.85 15.49 C180.73 13.51, 186.51 12.02, 201.5 6.75" stroke="#000000" stroke-width="1" fill="none"></path></g><g transform="translate(308.94654352837165 76.30033275887799) rotate(0 100.78794670472388 3.5158006295876874)"><path d="M172.43 -2.67 C187.12 -1.12, 196.44 3.28, 202.16 5.14 M174.49 -5.02 C181.38 -2.17, 187 1.18, 201.5 6.75" stroke="#000000" stroke-width="1" fill="none"></path></g></g><g stroke-linecap="round" transform="translate(10 28.78969211984355) rotate(0 142.09704665631585 62.2408551469813)"><path d="M0.98 -1.3 C98.77 -0.95, 197.01 -0.45, 283.13 -1.21 M-0.67 -0.53 C99.16 1.27, 198.19 1.03, 284.36 0.48 M283.29 -1.36 C283.02 46.07, 282.46 95.17, 282.35 124.16 M283.29 -0.69 C283.7 29.84, 283.26 60.86, 284.81 124.65 M283.67 123.14 C183.32 121.85, 83.31 122.55, 0.31 123.76 M283.7 124.32 C172.79 125.34, 62.71 125.48, -0.64 124.21 M-0.41 125.56 C-0.87 91.64, -0.33 58.93, 1.13 -0.03 M0.72 125.27 C0.39 74.5, 1 26.13, 0.34 -0.53" stroke="#000000" stroke-width="1" fill="none"></path></g><g transform="translate(58.148586057098726 65.5895666619619) rotate(0 90 24)"><text x="90" y="17" font-family="Virgil, Segoe UI Emoji" font-size="19.060515394007822px" fill="#000000" text-anchor="middle" style="white-space: pre;" direction="ltr">YouTube Response </text><text x="90" y="41" font-family="Virgil, Segoe UI Emoji" font-size="19.060515394007822px" fill="#000000" text-anchor="middle" style="white-space: pre;" direction="ltr">Contract</text></g><g stroke-linecap="round"><g transform="translate(121.32532749208781 287.1479587676903) rotate(0 3.8306974994860923 -60.66931823507606)"><path d="M-0.4 0.71 C0.37 -19.69, 4.5 -101.45, 5.77 -122.04 M1.59 0.03 C2.64 -20.18, 7.19 -100.13, 8.06 -120.46" stroke="#000000" stroke-width="1" fill="none"></path></g><g transform="translate(121.32532749208781 287.1479587676903) rotate(0 3.8306974994860923 -60.66931823507606)"><path d="M18.06 -93.12 C13.46 -102.07, 8.56 -115.43, 8.81 -120.05 M16.3 -91.86 C14.2 -101.61, 11.17 -112.17, 7.73 -120.41" stroke="#000000" stroke-width="1" fill="none"></path></g><g transform="translate(121.32532749208781 287.1479587676903) rotate(0 3.8306974994860923 -60.66931823507606)"><path d="M-2.44 -94.16 C1.09 -102.63, 4.31 -115.58, 8.81 -120.05 M-4.19 -92.9 C1.24 -102.08, 5.74 -112.26, 7.73 -120.41" stroke="#000000" stroke-width="1" fill="none"></path></g></g><g stroke-linecap="round" transform="translate(520.8447545082431 10) rotate(0 94.53563847796215 77.50747999435409)"><path d="M124.57 3.99 C136.58 5.91, 149.41 12.86, 158.89 20.02 C168.36 27.19, 176.47 37.15, 181.44 46.99 C186.41 56.84, 188.97 68.61, 188.71 79.09 C188.45 89.58, 185.31 100.28, 179.87 109.88 C174.42 119.47, 165.67 129.65, 156.03 136.66 C146.4 143.67, 134.25 149.11, 122.05 151.94 C109.85 154.77, 95.44 154.96, 82.81 153.64 C70.17 152.32, 57.17 149.42, 46.24 144.02 C35.3 138.63, 24.51 130, 17.2 121.27 C9.89 112.54, 4.83 101.81, 2.38 91.64 C-0.08 81.47, -0.43 70.41, 2.45 60.26 C5.33 50.11, 11.92 39.17, 19.67 30.73 C27.41 22.29, 37.82 14.73, 48.91 9.62 C60 4.5, 72.44 0.53, 86.19 0.05 C99.95 -0.43, 122.78 4.93, 131.45 6.74 C140.13 8.55, 138.66 9.71, 138.26 10.91 M65.47 4.48 C76.75 0.52, 92.54 0.62, 104.98 1.84 C117.42 3.05, 129.23 6.59, 140.13 11.74 C151.04 16.9, 162.69 24.3, 170.41 32.77 C178.13 41.24, 183.75 52.36, 186.47 62.57 C189.18 72.78, 189.29 84.08, 186.7 94.02 C184.11 103.96, 178.52 113.9, 170.93 122.22 C163.33 130.53, 151.92 138.37, 141.11 143.92 C130.3 149.47, 118.54 154.14, 106.07 155.52 C93.61 156.9, 78.98 155.74, 66.34 152.22 C53.69 148.7, 40.04 141.59, 30.2 134.39 C20.36 127.18, 12.2 118.52, 7.28 108.99 C2.36 99.46, 0.73 87.5, 0.7 77.19 C0.67 66.87, 2.12 56.47, 7.1 47.08 C12.07 37.69, 20.8 27.97, 30.55 20.83 C40.29 13.69, 59.92 6.88, 65.57 4.24 C71.22 1.61, 64.23 4.05, 64.46 5.01" stroke="#000000" stroke-width="1" fill="none"></path></g><g transform="translate(578.4214363200088 77.33312423686382) rotate(0 31.08717787874508 12.740646671616846)"><text x="31.087177878745106" y="18.48129334323369" font-family="Virgil, Segoe UI Emoji" font-size="20.38503467458695px" fill="#000000" text-anchor="middle" style="white-space: pre;" direction="ltr">oracle</text></g><g stroke-linecap="round"><g transform="translate(552.8169806869234 160.05998562436963) rotate(0 -63.23332957536019 74.98905348083638)"><path d="M0.24 -0.64 C-21.06 24.1, -105.82 124.55, -126.7 149.59 M-1.1 1.64 C-22.14 27, -103.83 125.81, -124.58 150.61" stroke="#000000" stroke-width="1" fill="none"></path></g><g transform="translate(552.8169806869234 160.05998562436963) rotate(0 -63.23332957536019 74.98905348083638)"><path d="M-115.51 120.51 C-119.77 134.28, -123.68 142.6, -124.4 152.07 M-114.47 123.37 C-117.73 129.1, -120.05 134.64, -123.66 149.86" stroke="#000000" stroke-width="1" fill="none"></path></g><g transform="translate(552.8169806869234 160.05998562436963) rotate(0 -63.23332957536019 74.98905348083638)"><path d="M-99.73 133.63 C-110.29 142.3, -120.37 145.49, -124.4 152.07 M-98.69 136.49 C-105.6 139.14, -111.56 141.67, -123.66 149.86" stroke="#000000" stroke-width="1" fill="none"></path></g></g><g stroke-linecap="round"><g transform="translate(378.8720494053082 304.76329513004356) rotate(0 66.4874620538836 -79.36068341840226)"><path d="M0.48 0.9 C22.22 -25.38, 109.49 -131.16, 131.32 -157.83 M-0.73 0.32 C21.33 -26.29, 111.85 -133.2, 133.71 -159.62" stroke="#000000" stroke-width="1" fill="none"></path></g><g transform="translate(378.8720494053082 304.76329513004356) rotate(0 66.4874620538836 -79.36068341840226)"><path d="M124.95 -132.46 C128.4 -142.84, 130.05 -152.51, 134.4 -157.87 M124.37 -132.04 C125.77 -140.31, 129.19 -150.06, 133.16 -159.41" stroke="#000000" stroke-width="1" fill="none"></path></g><g transform="translate(378.8720494053082 304.76329513004356) rotate(0 66.4874620538836 -79.36068341840226)"><path d="M109.23 -145.64 C118.54 -151.15, 126.09 -155.88, 134.4 -157.87 M108.64 -145.23 C115.28 -149.32, 123.82 -154.78, 133.16 -159.41" stroke="#000000" stroke-width="1" fill="none"></path></g></g><g stroke-linecap="round"><g transform="translate(497.3702267173144 114.51766238280321) rotate(0 -93.84829254552585 -0.24906502104292194)"><path d="M-0.89 -0.13 C-32.18 -0.16, -156.31 -0.67, -187.3 -0.52 M0.85 -1.25 C-30.7 -1.09, -157.14 0.73, -188.55 0.75" stroke="#000000" stroke-width="1" fill="none"></path></g><g transform="translate(497.3702267173144 114.51766238280321) rotate(0 -93.84829254552585 -0.24906502104292194)"><path d="M-160.66 -10.69 C-170.89 -6.52, -178.25 -2.19, -187.84 1.98 M-159.82 -10.19 C-170.17 -6.83, -180.01 -1.7, -188.51 1.15" stroke="#000000" stroke-width="1" fill="none"></path></g><g transform="translate(497.3702267173144 114.51766238280321) rotate(0 -93.84829254552585 -0.24906502104292194)"><path d="M-160.49 9.83 C-170.72 7.03, -178.14 4.37, -187.84 1.98 M-159.64 10.33 C-170.25 6.42, -180.15 4.27, -188.51 1.15" stroke="#000000" stroke-width="1" fill="none"></path></g></g><g stroke-linecap="round"><g transform="translate(177.93287332110066 170.88673877615923) rotate(0 15.864655228903715 125.00640885699097)"><path d="M-0.83 0.55 C4.43 42.25, 27.12 207.61, 32.56 249.19 M0.94 -0.21 C5.92 41.7, 25.91 208.31, 31.44 250.22" stroke="#000000" stroke-width="1" fill="none"></path></g><g transform="translate(177.93287332110066 170.88673877615923) rotate(0 15.864655228903715 125.00640885699097)"><path d="M18.67 222.98 C21.2 232.08, 27.82 242.77, 30.33 250.64 M18.01 223.07 C22.82 233.27, 28.75 244.2, 32.07 249.99" stroke="#000000" stroke-width="1" fill="none"></path></g><g transform="translate(177.93287332110066 170.88673877615923) rotate(0 15.864655228903715 125.00640885699097)"><path d="M39.04 220.44 C33.72 230.37, 32.51 242.04, 30.33 250.64 M38.38 220.52 C35.53 231.49, 33.82 243.38, 32.07 249.99" stroke="#000000" stroke-width="1" fill="none"></path></g></g></svg>